<?xml version="1.0" encoding="UTF-8"?>
<svg width="396px" height="384px" viewBox="0 0 396 384" version="1.1" xmlns="http://www.w3.org/2000/svg" xmlns:xlink="http://www.w3.org/1999/xlink">
    <!-- Generator: Sketch 53.2 (72643) - https://sketchapp.com -->
    <title>teacher</title>
    <desc>Created with Sketch.</desc>
    <defs>
        <path d="M1.94256368,-7.10542736e-15 L23.7246979,-7.10542736e-15 L28.0091362,18.7096068 C21.6489385,23.9587656 16.7710036,26.5833449 13.3753314,26.5833449 C9.97965914,26.5833449 5.52121535,23.9587656 1.77635684e-15,18.7096068 L1.94256368,-7.10542736e-15 Z" id="path-1"></path>
    </defs>
    <g id="Page-1" stroke="none" stroke-width="1" fill="none" fill-rule="evenodd">
        <g id="Artboard" transform="translate(-52.000000, -58.000000)">
            <g id="teacher" transform="translate(52.000000, 58.000000)">
                <g id="whiteboard" transform="translate(175.000000, 15.000000)">
                    <g id="stand" transform="translate(25.000000, 198.000000)" fill="#282828">
                        <rect id="Rectangle" x="71.6897693" y="0.33062726" width="12.7719298" height="140.491228" rx="6.38596491"></rect>
                        <path d="M130.510338,0.441401353 L130.510338,0.441401353 C134.037209,0.441401353 136.896303,3.30049523 136.896303,6.82736627 L136.896303,150.055436 C136.896303,153.582307 134.037209,156.441401 130.510338,156.441401 L130.510338,156.441401 C126.983467,156.441401 124.124373,153.582307 124.124373,150.055436 L124.124373,6.82736627 C124.124373,3.30049523 126.983467,0.441401353 130.510338,0.441401353 Z" id="Rectangle-Copy" transform="translate(130.510338, 78.441401) rotate(-14.000000) translate(-130.510338, -78.441401) "></path>
                        <path d="M25.5980569,-0.441401353 L25.5980569,-0.441401353 C29.124928,-0.441401353 31.9840218,2.41769252 31.9840218,5.94456356 L31.9840218,149.172634 C31.9840218,152.699505 29.124928,155.558599 25.5980569,155.558599 L25.5980569,155.558599 C22.0711859,155.558599 19.212092,152.699505 19.212092,149.172634 L19.212092,5.94456356 C19.212092,2.41769252 22.0711859,-0.441401353 25.5980569,-0.441401353 Z" id="Rectangle-Copy-2" transform="translate(25.598057, 77.558599) rotate(14.000000) translate(-25.598057, -77.558599) "></path>
                    </g>
                    <g id="board" transform="translate(110.473049, 115.876223) rotate(1.000000) translate(-110.473049, -115.876223) translate(1.973049, 1.876223)">
                        <rect id="Rectangle" fill="#D8D8D8" x="10.8089842" y="11.8169769" width="196" height="206"></rect>
                        <path d="M108.606887,109.836194 L108.606887,109.836194 C114.129734,109.836194 118.606887,114.313347 118.606887,119.836194 L118.606887,315.836194 C118.606887,321.359042 114.129734,325.836194 108.606887,325.836194 L108.606887,325.836194 C103.084039,325.836194 98.6068867,321.359042 98.6068867,315.836194 L98.6068867,119.836194 C98.6068867,114.313347 103.084039,109.836194 108.606887,109.836194 Z" id="Rectangle-Copy-3" fill="#C75467" transform="translate(108.606887, 217.836194) rotate(90.000000) translate(-108.606887, -217.836194) "></path>
                        <path d="M108.993629,-97.2020882 L108.993629,-97.2020882 C114.516477,-97.2020882 118.993629,-92.7249357 118.993629,-87.2020882 L118.993629,108.797912 C118.993629,114.320759 114.516477,118.797912 108.993629,118.797912 L108.993629,118.797912 C103.470782,118.797912 98.9936293,114.320759 98.9936293,108.797912 L98.9936293,-87.2020882 C98.9936293,-92.7249357 103.470782,-97.2020882 108.993629,-97.2020882 Z" id="Rectangle-Copy-4" fill="#C75467" transform="translate(108.993629, 10.797912) rotate(90.000000) translate(-108.993629, -10.797912) "></path>
                    </g>
                </g>
                <g id="person" transform="translate(0.000000, -0.000000)">
                    <g id="pants" transform="translate(41.200031, 164.820986)">
                        <g id="left-leg" transform="translate(0.000000, 3.918671)">
                            <g id="left-shoe" transform="translate(57.799969, 173.487868)">
                                <path d="M2.53993594,22 C10.6738791,20.6029497 16.9728486,20.6029497 21.4368443,22 C25.90084,23.3970503 29.9162744,26.2549072 33.4831475,30.5735705 C35.163765,30.5735705 36.0040737,31.7157137 36.0040737,34 C36.0040737,36.2842863 36.337407,36.4993487 37.0040737,34.6451871 C33.9278996,38.7906502 29.2136965,40.1239835 22.8614645,38.6451871 C17.7474665,37.4546509 17.9252196,37.6351256 11.2184221,33 C10.6286168,32.5923804 10.3165796,31.2718242 8.22622408,30.5735705 C7.06187843,30.1846373 5.91108095,29.4955636 4.77383166,28.5063494 C1.59127722,29.0778246 0,28.433565 0,26.5735705 C0,24.7135761 0.846645314,23.1890526 2.53993594,22 Z" id="Rectangle" fill="#49486B"></path>
                                <path d="M22.143873,17.9128465 C22.2427657,17.9407728 22.3404228,17.969824 22.4368443,18 C26.90084,19.3970503 30.9162744,22.2549072 34.4831475,26.5735705 C36.163765,26.5735705 37.0040737,27.7157137 37.0040737,30 C37.0040737,32.2842863 37.0040737,33.832682 37.0040737,34.6451871 C34.5945662,36.1239835 30.2136965,36.1239835 23.8614645,34.6451871 C18.7474665,33.4546509 18.6375298,34.6351256 11.9307323,30 C11.3409269,29.5923804 11.3165796,27.2718242 9.22622408,26.5735705 C8.06187843,26.1846373 6.85102749,25.8267805 5.59367127,25.5 C2.12756832,26.3793794 0.338272108,25.9627266 0.225782632,24.2500417 L-2.84217094e-14,24.3088922 L0.232811502,23.4398754 C0.283283669,22.2531736 0.484325966,21.5027419 0.835938572,21.1885795 L1.56674217,18.4607047 L3.40346416,1.42108547e-14 L16.9017977,2.03417281 C17.7641407,6.69984378 18.6153439,10.0732682 19.4554073,12.1544461 C20.2231473,14.0564497 21.1193025,15.9759165 22.143873,17.9128465 Z" id="Combined-Shape" fill="#666589"></path>
                            </g>
                            <path d="M4.79996935,1.48786771 L44.7999694,1.48786771 C41.570615,13.45762 39.9559378,27.5493513 39.9559378,43.7630616 C39.9559378,54.4371219 36.2897765,77.2842827 36.2897765,93.9548449 C36.2897765,99.3315643 34.2134235,104.564426 30.0607175,109.65343 L9.43034342,122.487868 C4.01638121,76.087503 0.934385052,43.087503 0.184354945,23.4878677 C-0.565675163,3.88823242 0.972862973,-3.44510092 4.79996935,1.48786771 Z" id="Rectangle" fill="#49486B"></path>
                            <path d="M14.2257574,98.6643332 L32.6742332,94.2075194 C34.3205516,103.741566 35.1594949,109.92618 35.1910631,112.761363 C35.2777815,120.549658 32.9695736,129.187284 32.6742332,135.494111 C32.2176231,145.244759 32.2176231,163.815896 32.6742332,191.207519 C24.2700607,189.165343 18.860949,187.95921 16.4468981,187.589122 C14.0328473,187.219034 11.483871,188.425167 8.79996935,191.207519 C7.84478972,154.833781 7.17373424,128.685062 6.78680289,112.761363 C6.39987154,96.8376634 8.87952304,92.1386536 14.2257574,98.6643332 Z" id="Rectangle-Copy-6" fill="#49486B"></path>
                        </g>
                        <g id="right-leg" transform="translate(10.445848, -0.000000)">
                            <g id="right-shoe" transform="translate(0.354122, 191.406539)">
                                <path d="M23.0839896,18.7893686 C25.1404041,21.5878363 25.5414881,24.1577033 24.2872416,26.4989696 C13.8303096,26.8329899 7.56755569,27 5.49898001,27 C3.43040433,27 1.73831593,26.3121291 0.422714803,24.9363872 C-0.320624585,20.4738573 -0.0835982953,17.8922191 1.13379367,17.1914726 C9.32982207,12.4737335 21.4022658,16.5007981 23.0839896,18.7893686 Z" id="Rectangle" fill="#49486B"></path>
                                <path d="M2.24837843,-1.13686838e-13 L16.8327839,-1.13686838e-13 C18.2657499,7.63270613 19.992762,12.9317504 22.0138203,15.8971328 C24.0348785,18.8625153 24.5135248,21.447628 23.4497592,23.652471 L5.70509813,25 C2.97077188,23.5477435 1.26582728,22.074829 0.590264339,20.5812567 C-0.423080073,18.3408982 0.0668282672,15.6874081 0.590264339,13.6918395 C1.17643758,11.4570893 0.24250431,8.11918911 0.590264339,6.76154883 C1.24856421,4.19157431 1.80126891,1.9377247 2.24837843,-1.13686838e-13 Z" id="Rectangle" fill="#666589"></path>
                            </g>
                            <path d="M45.3541218,118.406539 L69.2283857,118.406539 C69.6849958,126.67177 69.6849958,135.291712 69.2283857,144.266365 C69.1153463,146.488149 69.2854565,164.894692 69.2283857,168.070737 C69.1127453,174.506231 69.1127453,181.951498 69.2283857,190.406539 C65.5666906,190.406539 62.0086463,189.238449 58.5542526,186.902269 C55.099859,184.566088 52.1397531,185.734178 49.6739349,190.406539 C46.2232457,167.277675 44.1420599,149.782301 43.4303776,137.920416 C42.7186953,126.058532 43.3599434,119.553906 45.3541218,118.406539 Z" id="Rectangle" fill="#49486B"></path>
                            <path d="M26.3138776,11.6013886 L75.3478698,8.73948554 C70.291888,16.9130655 66.7287209,28.5966053 64.6583686,43.790105 C62.5880163,58.9836047 63.9247907,83.5150919 68.6686918,117.384567 L43.3703351,123.225152 C39.8173002,111.107959 37.3785952,100.544767 36.0542199,91.5355762 C33.2181284,72.2427895 24.7376817,34.9094035 24.2966064,23.3833111 C23.5465763,3.78367582 24.219,-0.143631678 26.3138776,11.6013886 Z" id="Rectangle-Copy-5" fill="#49486B" transform="translate(49.673935, 64.112576) scale(-1, 1) rotate(13.000000) translate(-49.673935, -64.112576) "></path>
                        </g>
                    </g>
                    <g id="suit" transform="translate(0.000000, 60.224137)">
                        <path d="M52,12.1323895 C61.5421007,7.37972199 70.3389757,5.00338822 78.390625,5.00338822 C86.4422743,5.00338822 96.6453993,7.37972199 109,12.1323895 L109,123.027966 C96.9083057,129.011581 87.5460524,132.003388 80.9132399,132.003388 C74.2804274,132.003388 64.6426807,129.011581 52,123.027966 L52,12.1323895 Z" id="shirt" fill="#FDD4DB"></path>
                        <g id="left-arm" transform="translate(0.000000, 13.003388)" fill="#49486B">
                            <path d="M27.2033047,50.135039 L51.5010149,73.2666075 L51.5010149,87.8015233 C42.6631549,85.1057612 33.1600471,80.6297075 22.9916914,74.373362 C16.3442621,70.2833581 8.88333127,64.8755466 0.608899012,58.1499274 L0.888611393,58.0593245 C0.556364669,57.5501274 0.390208788,56.9918175 0.432179682,56.3800935 C1.17924476,45.491652 12.1083594,26.9654619 33.2195237,0.801523326 L56.425788,8.76146857 C45.648051,22.3362711 37.9126295,33.2162894 33.2195237,41.4015233 C31.2171664,44.8938298 29.21176,47.8050016 27.2033047,50.135039 Z" id="Combined-Shape"></path>
                        </g>
                        <path d="M33.3768508,13.8917356 C45.6690416,11.4024134 53.606059,9.75715512 57.1879028,8.95596064 C62.433657,7.78257913 66.7007444,0.791606131 69.0672323,0.791606131 C76.2526429,0.791606131 69.0672323,-2.70621973 69.0672323,5.00338822 C69.0672323,12.7129962 64,-0.199634223 64,23.0887637 C64,30.8243168 66.6281723,36.9720681 67.1246686,49.3974972 C67.345817,54.932007 70.0564516,68.2939412 69.0672323,85.1496253 C68.5654361,93.6999227 72.8435737,106.414597 64,122.292518 C58.1042842,132.877799 48.7709509,136.470617 36,133.070974 C39.1021932,115.450076 40.6998441,103.015981 40.7929528,95.7686869 C41.0863944,72.9280754 36.8264532,55.6974598 36,46.8468816 C34.7801982,33.7838896 33.9058151,22.7988409 33.3768508,13.8917356 Z" id="suit-left" fill="#666589"></path>
                        <g id="right-arm" transform="translate(105.000000, 18.003388)">
                            <g id="hand-and-stick" transform="translate(77.744306, 0.510326)">
                                <rect id="Rectangle" fill="#D9BE8C" transform="translate(14.500000, 60.532505) rotate(-11.000000) translate(-14.500000, -60.532505) " x="2" y="53.5325054" width="25" height="14"></rect>
                                <path d="M28.6230924,66.6574477 C34.3417897,66.6574477 42.8938449,58.0996562 42.8938449,55.4248305 C42.8938449,52.5584297 50.6928444,49.9637036 47.6718536,48.0059186 C45.7758659,46.7772037 44.7521476,47.8105241 41.6447586,46.83437 C39.2096444,46.069404 43.2228939,43.0518794 40.8519253,43.0518794 C30.6346574,43.0518794 10.9283359,52.5562421 10.9283359,58.6313743 C10.9283359,64.7065066 18.4058246,66.6574477 28.6230924,66.6574477 Z" id="Oval" fill="#D9BE8C" transform="translate(29.647836, 54.854664) rotate(-11.000000) translate(-29.647836, -54.854664) "></path>
                                <path d="M46.0683558,-6.8309255 L46.4636727,-6.3427498 C46.7333727,-6.00969806 46.8889595,-5.59882233 46.9075069,-5.17066635 L50.1673754,70.081519 C50.2151797,71.1850536 49.3593412,72.1183981 48.2558066,72.1662024 C48.2269711,72.1674515 48.1981119,72.1680763 48.1692493,72.1680763 L47.2577633,72.1680764 C46.1531938,72.1680764 45.2577633,71.2726459 45.2577633,70.1680764 C45.2577633,70.1680764 45.2577633,70.1680764 45.2577633,70.1680764 L45.2577635,51.1309957 C46.3638223,48.6699775 46.9168517,47.0960137 46.9168517,46.4091044 C46.9168517,45.7221951 46.3638223,45.6777006 45.2577635,46.2756211 L45.2577635,-6.5438797 C45.2577635,-6.79578799 45.4619755,-7 45.7138838,-7 C45.8514964,-7 45.9817534,-6.93787062 46.0683558,-6.8309255 Z" id="Rectangle" fill="#282828" transform="translate(47.713524, 32.584038) rotate(39.000000) translate(-47.713524, -32.584038) "></path>
                                <ellipse id="Oval" fill="#D9BE8C" cx="39.8939972" cy="47.7760027" rx="7" ry="2.5"></ellipse>
                                <ellipse id="Oval-Copy-6" fill="#D9BE8C" cx="37.8939972" cy="51.7760027" rx="7" ry="2.5"></ellipse>
                                <ellipse id="Oval-Copy-7" fill="#D9BE8C" cx="34.8939972" cy="56.7760027" rx="7" ry="2.5"></ellipse>
                                <ellipse id="Oval-Copy-8" fill="#D9BE8C" cx="30.8939972" cy="62.7760027" rx="7" ry="2.5"></ellipse>
                            </g>
                            <path d="M18.6383032,68.0694698 C20.9254478,64.635158 27.0382969,61.8741109 36.9768506,59.7863287 C42.1584849,58.6978278 59.168015,56.3449283 67.0820312,55.3649895 C71.9255914,54.7652444 78.0793122,54.1093224 85.5431936,53.3972233 C82.0433214,58.9875854 80.5384789,62.9779289 81.0286661,65.3682539 C81.5188534,67.7585788 84.4070845,71.3493692 89.6933594,76.140625 C64.5557424,79.4826876 47.0537995,82.4249743 37.1875308,84.9674851 C27.3212621,87.509996 21.2851661,87.271043 19.0792429,84.2506262 L18.6383032,68.0694698 Z" id="Rectangle" fill="#49486B"></path>
                            <path d="M5.50061047,2.92567358 L30.5006105,2.92567358 C31.3717162,12.8287325 31.3717162,21.3275556 30.5006105,28.4221428 C29.1939518,39.0640237 32.373712,38.830884 32.373712,51.3036794 C32.373712,59.6188763 31.4941073,66.7826818 29.7348979,72.795096 L13.7815603,83.5998666 C11.6784414,78.8569465 9.50947512,74.3360996 7.27466156,70.0373258 C5.039848,65.738552 4.44849763,43.3680012 5.50061047,2.92567358 Z" id="Rectangle" fill="#49486B" transform="translate(18.684583, 43.262770) rotate(-7.000000) translate(-18.684583, -43.262770) "></path>
                        </g>
                        <path d="M87,17.0033882 C98.2075053,13.3317328 104.804376,11.1921488 106.790611,10.5846364 C116.376756,7.65260627 113.405538,6.118003 116.138106,5.50677643 C121.38386,4.33339492 125.989163,0.794994347 128.355651,0.794994347 C135.541061,0.794994347 128.355651,-2.70283152 128.355651,5.00677643 C128.355651,12.7163844 123.288418,-0.196246007 123.288418,23.0921519 C123.288418,30.827705 125.916591,36.9754563 126.413087,49.4008854 C126.676487,55.9927934 121.702049,77.0775698 121.549167,95.7686869 C121.508578,100.730931 119.938976,108.724243 116.138106,115.887526 C113.604192,120.663048 110.488361,126.035002 106.790611,132.003388 C102.010762,130.100493 99.6208369,128.767159 99.6208369,128.003388 C99.6208369,119.648136 102.686502,113.908315 102.686502,100.804912 C102.686502,91.4739178 104.79505,76.1428396 99.6208369,55.5033882 C97.5620468,47.2910679 93.3551012,34.4577346 87,17.0033882 Z" id="suit-right" fill="#666589" transform="translate(109.274583, 66.003388) scale(-1, 1) translate(-109.274583, -66.003388) "></path>
                    </g>
                    <g id="head" transform="translate(54.913240, 0.000000)">
                        <g id="neck" transform="translate(12.211429, 52.227525)">
                            <mask id="mask-2" fill="white">
                                <use xlink:href="#path-1"></use>
                            </mask>
                            <use fill="#D9BE8C" xlink:href="#path-1"></use>
                            <path d="M1.94256368,3.55271368e-15 L23.7246979,3.55271368e-15 L28.0091362,18.7096068 C28.5485162,20.8287672 27.1203701,21.8883474 23.7246979,21.8883474 C20.3290256,21.8883474 13.6157265,18.1334316 3.5848005,10.6236001 L1.94256368,3.55271368e-15 Z" fill="#D1AE6E" mask="url(#mask-2)"></path>
                        </g>
                        <path d="M25.0867601,65.2275249 C32.1760423,65.2275249 34.8712703,62.3178534 39.851812,55.144525 C42.6876636,51.0601311 46.0867601,43.2391217 46.0867601,37.2275249 C46.0867601,30.8127869 48.8080847,18.4549027 46.0867601,13.7336324 C42.2478027,7.07336298 31.8736864,4.67395406 25.0867601,4.67395406 C20.6629543,4.67395406 9.7854031,8.17854513 6.40045778,11.2930453 C0.911024568,16.3438923 4.08676014,27.6619596 4.08676014,37.2275249 C4.08676014,44.0155415 7.18488103,50.7714972 10.5617247,55.144525 C16.1009551,62.3178534 18.5797929,65.2275249 25.0867601,65.2275249 Z" id="Oval" fill="#D9BE8C"></path>
                        <path d="M46.5867601,43.2275249 C49.0720415,43.2275249 51.0867601,40.5412334 51.0867601,37.2275249 C51.0867601,35.4981228 51.495594,32.3224769 50.6175867,31.2275249 C49.8132436,30.2244387 47.7749899,31.2275249 46.5867601,31.2275249 C44.1014788,31.2275249 42.0867601,33.9138164 42.0867601,37.2275249 C42.0867601,40.5412334 44.1014788,43.2275249 46.5867601,43.2275249 Z" id="Oval" fill="#D9BE8C"></path>
                        <path d="M4.58676014,43.2275249 C7.07204151,43.2275249 9.08676014,40.5412334 9.08676014,37.2275249 C9.08676014,33.9138164 7.07204151,31.2275249 4.58676014,31.2275249 C3.21051114,31.2275249 1.23761362,30.6297802 0.412174477,31.9276642 C-0.252994932,32.9735471 0.0867601364,35.7488151 0.0867601364,37.2275249 C0.0867601364,40.5412334 2.10147876,43.2275249 4.58676014,43.2275249 Z" id="Oval-Copy-5" fill="#D9BE8C"></path>
                        <path d="M25.0867601,18.5900191 C28.8657246,18.5900191 37.9542361,17.1522329 42.0867601,22.880276 C45.7067909,27.8979583 41.998251,38.3003023 44.3238991,34.9507395 C45.1432732,33.7706189 46.7818729,32.5744854 47.2962377,30.7817088 C48.9737992,24.9347059 48.7169141,15.2822525 46.7818729,11.9251182 C42.9429155,5.26484872 25.978875,0.516563397 19.1919487,0.516563397 C17.493781,0.516563397 12.2535191,-0.645704247 10.3778562,0.516563397 C7.36732979,2.38205704 6.52451004,6.95512286 4.43894471,8.87405892 C0.471067331,12.524917 3.17301886,22.880276 3.17301886,29.8722498 C3.17301886,30.1113829 3.13757619,30.5651294 3.17301886,30.7817088 C3.53311026,32.9821181 5.63510575,33.8472416 6.48722466,34.9507395 C9.78357021,39.2195219 4.70823015,28.4891764 9.08676014,20.2670399 C12.0659801,14.6725702 22.4520298,18.5900191 25.0867601,18.5900191 Z" id="Oval" fill="#282828"></path>
                    </g>
                </g>
            </g>
        </g>
    </g>
</svg>