<?xml version="1.0" encoding="UTF-8"?>
<svg width="410px" height="326px" viewBox="0 0 410 326" version="1.1" xmlns="http://www.w3.org/2000/svg" xmlns:xlink="http://www.w3.org/1999/xlink">
    <!-- Generator: Sketch 53.2 (72643) - https://sketchapp.com -->
    <title>thumbs up</title>
    <desc>Created with Sketch.</desc>
    <g id="Page-1" stroke="none" stroke-width="1" fill="none" fill-rule="evenodd">
        <g id="Artboard" transform="translate(-45.000000, -87.000000)">
            <g id="thumbs-up" transform="translate(46.000000, 87.000000)">
                <path d="M356.415089,317.576826 C310.135296,318.506358 212.361109,313.868737 195.419013,311.118138 C191.082819,310.414145 174.071454,310.414145 144.384918,311.118138 C141.120485,227.533553 141.120485,178.827507 144.384918,165 C145.262289,161.283628 158.440128,163.082582 163.503752,158.848987 C170.127275,153.311192 175.155852,141.399726 180.400211,133.23023 C184.175979,127.348461 189.182246,115.730535 195.419013,98.3764518 C206.91193,40.5082159 212.658389,8.67023756 212.658389,2.86251662 C212.658389,-5.84906477 236.186254,4.90022349 250.105469,40.9378622 C264.024684,76.975501 234.720123,127.078487 264.33974,127.078487 C280.0703,127.078487 313.838873,127.078487 335.883467,127.078487 C360.300477,127.078487 381.956073,127.186195 390.610165,131.174344 C400.144743,133.73521 409,139.159135 409,150.295284 C409,166.66601 403.308837,172.457776 395.915607,179.125705 C395.944471,179.894102 395.965595,180.669405 395.97949,181.450831 C402.158869,187.927922 405,194.571892 405,207.587607 C405,221.619433 399.741399,224.736009 391.949205,229.01505 C391.631295,230.193597 391.23602,231.340357 390.783532,232.463712 C394.335485,237.742667 396,243.972146 396,253.934599 C396,271.877313 387.401592,271.972355 375.902344,279.472355 C375.829601,279.519798 375.757183,279.566175 375.685088,279.611493 C375.595036,280.049457 375.504788,280.489181 375.414232,280.930306 C378.937255,286.785667 380.110077,295.2815 377.82119,305.580895 C375.435751,316.31475 365.7965,318.359375 356.415089,317.576826 Z" id="Combined-Shape" fill="#D9BE8C"></path>
                <path d="M8.00505095,151 L118,151 C121.865993,151 125,154.134007 125,158 L125,319 C125,322.865993 121.865993,326 118,326 L14.6261087,326.000007 C10.7601116,326.000007 7.62610165,322.865997 7.62610165,319 C7.62610165,318.91809 7.62753933,318.836187 7.63041405,318.754327 C8.13386062,304.41835 8.03638449,293.494247 7.33798566,285.982019 C5.94597335,271.009036 0,262.814194 0,238.5 C4.33680869e-16,229.026236 8.44458662,212.884319 7.33798566,204.811956 C4.36170995,183.100808 2.2719138,167.810513 1.06859722,158.941072 L1.06859328,158.941073 C0.548855304,155.110173 3.23308232,151.583284 7.06398211,151.063546 C7.37588624,151.02123 7.6902894,151 8.00505095,151 Z" id="Rectangle" fill="#6C6B9B"></path>
                <path d="M0,295 L21,295" id="Line" stroke="#FFFFFF" stroke-linecap="square"></path>
            </g>
        </g>
    </g>
</svg>